<?xml version="1.0" encoding="utf-8"?>
<!-- Generator: Adobe Illustrator 16.0.0, SVG Export Plug-In . SVG Version: 6.00 Build 0)  -->
<!DOCTYPE svg PUBLIC "-//W3C//DTD SVG 1.1//EN" "http://www.w3.org/Graphics/SVG/1.1/DTD/svg11.dtd">
<svg version="1.1" id="Слой_1" xmlns="http://www.w3.org/2000/svg" xmlns:xlink="http://www.w3.org/1999/xlink" x="0px" y="0px"
	 width="841.89px" height="595.28px" viewBox="0 0 841.89 595.28" enable-background="new 0 0 841.89 595.28" xml:space="preserve">
<path d="M468.933,280.837c1.744,0,3.616,1.555,5.623,4.67c2.005,3.112,3.009,6.224,3.009,9.336c0,1.888-0.807,4.129-2.406,6.722
	c-1.606,2.593-3.621,5.034-6.051,7.321c-2.429,2.287-5.235,4.233-8.418,5.838c-3.184,1.603-6.216,2.402-9.092,2.402h-0.848
	c-2.971,12.358-5.071,18.536-6.296,18.536c-0.991,0-2.042-0.826-3.15-2.476c-1.105-1.65-1.662-3.018-1.662-4.103
	c0-1.086,0.687-4.41,2.052-9.975c4.057-16.509,6.086-28.959,6.086-37.355c0-1.416,0.682-2.122,2.051-2.122
	c1.133,0,2.569,0.637,4.317,1.909c1.742,1.275,2.829,2.926,3.253,4.953C461.407,282.723,465.252,280.837,468.933,280.837z
	 M463.377,302.624c3.278-3.347,4.916-6.247,4.916-8.701c0-2.45-0.683-3.679-2.052-3.679c-1.978,0-4.077,1.132-6.293,3.396
	c-0.897,0.945-1.888,2.334-2.972,4.174c-1.087,1.841-2.029,3.986-2.829,6.438l-1.205,4.456
	C456.623,308.002,460.1,305.976,463.377,302.624z"/>
<path d="M493.316,264.068c1.793,2.077,2.69,4.058,2.69,5.943c0,1.887-0.286,5.247-0.852,10.082s-1.154,8.691-1.767,11.565
	c-3.915,17.075-6.651,25.61-8.206,25.61c-1.04,0-2.324-0.836-3.856-2.512c-1.534-1.672-2.301-3.052-2.301-4.137
	c0-0.095,0.639-2.547,1.909-7.358c1.274-4.811,2.559-11.001,3.858-18.57c1.295-7.57,1.944-14.797,1.944-21.684
	c0-1.367,0.73-2.052,2.194-2.052C490.063,260.957,491.526,261.994,493.316,264.068z"/>
<path d="M522.606,282.534c0.378-1.18,1.131-1.769,2.263-1.769s2.441,0.966,3.927,2.901c1.486,1.934,2.229,3.606,2.229,5.023
	c0,0.518-1.086,3.984-3.255,10.4c-2.169,6.412-3.844,11.484-5.023,15.208c-0.66,1.981-1.77,2.972-3.324,2.972
	c-0.942,0-1.734-0.341-2.369-1.025c-0.64-0.683-0.957-1.757-0.957-3.217c0-1.464,0.284-3.538,0.852-6.228
	c-4.86,6.98-8.728,10.47-11.604,10.47c-1.51,0-3.326-0.978-5.448-2.935c-2.124-1.957-3.184-3.856-3.184-5.695
	c0-4.529,1.286-10.305,3.857-17.334c2.567-7.025,4.987-10.54,7.251-10.54c1.365,0,2.58,0.615,3.644,1.84
	c1.06,1.226,1.592,2.569,1.592,4.033c0,0.566-0.592,2.146-1.77,4.738c-3.586,7.782-5.377,13.277-5.377,16.483
	c0,0.284,0.116,0.427,0.354,0.427c0.706,0,2.04-1.121,3.997-3.361c1.959-2.239,4.149-5.446,6.58-9.622
	C519.269,291.13,521.189,286.873,522.606,282.534z"/>
<path d="M553.349,280.837c1.796,0,3.562,1.06,5.308,3.184c1.745,2.121,2.617,4.032,2.617,5.729c0,1.131-0.495,1.697-1.484,1.697
	c-0.565,0-1.393-0.223-2.477-0.671c-1.087-0.448-2.183-0.672-3.292-0.672s-2.733,0.377-4.881,1.132
	c-2.145,0.755-3.219,1.746-3.219,2.97c0,0.474,0.639,1.157,1.912,2.052c1.271,0.897,2.664,1.817,4.173,2.76
	c1.508,0.943,2.901,2.253,4.176,3.928c1.271,1.673,1.908,3.489,1.908,5.446s-1.426,3.927-4.281,5.906
	c-2.852,1.981-6.201,2.972-10.045,2.972s-7.133-0.872-9.87-2.617c-2.733-1.744-4.101-3.537-4.101-5.376
	c0-1.84,0.752-2.76,2.264-2.76c0.61,0,1.345,0.237,2.191,0.708c2.36,1.369,5.295,2.052,8.811,2.052c3.512,0,5.269-0.472,5.269-1.417
	c0-0.942-0.673-1.99-2.017-3.146c-1.343-1.154-2.807-2.228-4.384-3.22c-1.583-0.989-3.044-2.203-4.39-3.644
	c-1.344-1.438-2.016-2.841-2.016-4.209c0-2.547,2.311-5.316,6.935-8.311C547.078,282.334,550.709,280.837,553.349,280.837z"/>
<path fill="#FEB101" d="M309.309,289.916c1.974,0,3.396,0.184,4.26,0.554c0.865,0.375,1.297,1.054,1.297,2.043
	c0,1.33-2.148,2.688-6.45,4.074c0.101,3.752,0.151,7.347,0.151,10.779c0,3.436-0.271,6.008-0.818,7.71
	c-0.541,1.702-1.408,2.559-2.592,2.559s-2.109-0.604-2.779-1.817c-0.667-1.212-1.21-3.201-1.631-5.966
	c-0.419-2.764-0.851-6.423-1.295-10.964c-5.041,1.135-8.67,2.05-10.896,2.739c-3.851,10.669-6.422,16.008-7.706,16.008
	c-1.038,0-2.406-0.689-4.113-2.079c-1.702-1.378-2.557-2.816-2.557-4.292c0-0.842,0.966-3.458,2.893-7.86
	c-0.841-0.542-1.571-1.319-2.189-2.333c-0.617-1.011-0.925-1.987-0.925-2.928c0-1.63,2.448-3.186,7.338-4.667
	c0.391-0.989,0.802-2.114,1.224-3.375c0.418-1.258,1.479-4.209,3.184-8.855c1.705-4.642,3.053-8.52,4.042-11.635
	c0.444-1.481,1.987-2.863,4.63-4.147c2.64-1.285,4.706-1.927,6.188-1.927c1.729,0,3.273,2.395,4.633,7.183
	c1.357,4.799,2.308,11.194,2.853,19.198H309.309z M292.191,291.177c1.481-0.2,3.627-0.444,6.445-0.74
	c-0.147-1.434-0.382-3.879-0.704-7.336c-0.322-3.459-0.555-5.955-0.705-7.487C296.387,278.378,294.708,283.565,292.191,291.177z"/>
<path fill="#FEB101" d="M340.432,279.542c1.283,0,2.533,0.458,3.743,1.369c1.209,0.915,1.814,1.866,1.814,2.854
	c0,1.781-1.47,5.9-4.407,12.377c-2.942,6.476-5.659,11.684-8.154,15.634c-2.496,3.955-4.435,5.93-5.815,5.93
	c-0.743,0-1.819-0.489-3.225-1.479c-1.41-0.987-2.312-1.974-2.705-2.964c-1.187-2.866-2.62-8.165-4.299-15.899
	c-1.679-7.735-2.517-12.637-2.517-14.712c0-2.07,0.688-3.11,2.073-3.11c1.679,0,3.408,0.668,5.187,2.001
	c2.965,2.273,4.619,5.31,4.964,9.114c0.149,1.78,0.273,3.963,0.373,6.558c0.101,2.595,0.322,4.831,0.667,6.71
	c1.187-2.274,2.643-5.645,4.37-10.117c1.73-4.474,3.225-7.966,4.485-10.487C338.246,280.802,339.394,279.542,340.432,279.542z"/>
<path fill="#FEB101" d="M352.94,279.542c1.73,0,3.273,0.987,4.631,2.96c1.362,1.981,2.041,3.883,2.041,5.712
	c0,0.938-0.851,4.311-2.558,10.109c-1.703,5.808-3.395,11.306-5.077,16.492c-0.591,1.929-1.803,2.891-3.632,2.891
	c-1.086,0-2.036-0.407-2.85-1.222c-0.816-0.817-1.221-1.88-1.221-3.185c0-1.313,0.627-4.573,1.888-9.784
	c1.258-5.213,2.224-9.657,2.889-13.342c0.667-3.675,1.286-6.371,1.851-8.076C351.47,280.395,352.149,279.542,352.94,279.542z
	 M351.827,270.279c0-1.283,0.584-2.608,1.744-3.968c1.159-1.357,2.298-2.038,3.409-2.038c1.113,0,2.434,1.334,3.965,4.002
	c1.532,2.668,2.296,4.612,2.296,5.82c0,1.21-0.396,2.137-1.182,2.778c-0.792,0.64-1.608,0.964-2.447,0.964
	c-1.436,0-3.09-0.941-4.964-2.815C352.768,273.143,351.827,271.56,351.827,270.279z"/>
<path fill="#FEB101" d="M380.037,293.953c-0.768,2.399-1.704,5.396-2.815,9.005c-1.113,3.608-1.669,5.523-1.669,5.744
	c0,0.22,0.407,0.334,1.224,0.334c0.814,0,2.753-0.555,5.814-1.671c3.064-1.11,4.867-1.663,5.413-1.663
	c1.235,0,1.851,0.843,1.851,2.517c0,1.686-1.653,3.699-4.964,6.041c-3.313,2.348-6.768,3.521-10.374,3.521
	c-1.583,0-3.459-0.861-5.636-2.595c-2.173-1.729-3.259-3.483-3.259-5.263c0-1.479,0.752-4.604,2.262-9.373
	c1.503-4.765,2.53-8.038,3.073-9.818c-1.923,0.542-3.384,0.814-4.37,0.814c-0.99,0-2.024-0.676-3.113-2.035
	c-1.087-1.362-1.631-2.659-1.631-3.891c0-1.584,3.828-2.918,11.488-4.002c0.938-4.596,1.407-8.576,1.407-11.934
	c0-1.484,0.741-2.222,2.225-2.222c1.284,0,2.926,0.775,4.925,2.334c2.001,1.556,3.004,3.089,3.004,4.594
	c0,1.509-0.321,3.619-0.966,6.337c2.374-0.101,4.175-0.146,5.412-0.146c3.706,0,5.56,0.841,5.56,2.519
	c0,1.083-1.077,2.013-3.225,2.781c-2.149,0.765-5.448,1.589-9.894,2.481C381.383,289.695,380.801,291.558,380.037,293.953z"/>
<path fill="#FEB101" d="M398.185,287.765c3.828-5.53,7.619-8.295,11.375-8.295c3.754,0,6.915,1.316,9.484,3.964
	c2.567,2.645,3.855,5.827,3.855,9.555c0,3.731-0.888,7.525-2.669,11.381c-1.78,3.849-4.273,7.051-7.484,9.593
	c-3.211,2.544-6.646,3.818-10.301,3.818c-2.716,0-5.065-1.207-7.041-3.632c-1.977-2.421-2.963-5.357-2.963-8.817
	C392.441,299.158,394.352,293.302,398.185,287.765z M410.224,303.035c1.979-3.61,2.963-6.994,2.963-10.152
	c0-3.165-0.441-5.338-1.33-6.525c-2.125,1.24-4.237,3.832-6.334,7.783c-2.103,3.95-3.151,7.42-3.151,10.409
	c0,2.995,0.294,4.884,0.888,5.667C405.927,309.036,408.25,306.638,410.224,303.035z"/>
<path d="M432.458,318.119c-1.444,0-3.056-0.878-4.833-2.637c-1.782-1.757-2.67-3.277-2.67-4.56c0-1.287,0.563-2.569,1.688-3.854
	c1.127-1.284,2.267-1.929,3.414-1.929c1.149,0,2.444,1.264,3.887,3.786c1.443,2.524,2.162,4.438,2.162,5.745
	c0,0.676-0.416,1.418-1.248,2.23C434.022,317.714,433.223,318.119,432.458,318.119z"/>
</svg>
